<svg width="268" height="104" viewBox="0 0 134 52" fill="none" xmlns="http://www.w3.org/2000/svg">
<path d="M0.0223195 51.9049C1.28199 50.9505 13.8052 41.7113 20.7354 46.3817C20.7447 46.3879 20.7572 46.3817 20.7572 46.3701V7.36391C20.7572 7.34606 20.7307 7.34451 20.7291 7.36158C20.4503 10.0952 17.7888 30.9753 0.00357677 51.884C-0.00735647 51.8964 0.0090434 51.9142 0.0223195 51.9042V51.9049Z" fill="#099FAA"/>
<path d="M20.8009 0.0944232C20.7877 0.0889915 20.776 0.103735 20.7838 0.115374C21.2648 0.788898 27.7342 10.0793 27.8693 22.621C27.945 29.6294 26.3285 38.3495 20.9267 46.3387C20.9181 46.3511 20.9329 46.3666 20.9454 46.3581C22.2191 45.5216 44.2036 31.3155 54.9947 40.7852C55.0048 40.7937 55.0197 40.7852 55.0173 40.7728C54.833 39.612 50.1551 11.9711 20.8009 0.0944232Z" fill="#ED4C19"/>
<path d="M68.518 9.03649C69.54 9.56849 70.212 10.6185 70.212 11.8785C70.212 13.6425 68.896 15.0005 67.118 15.0005H62.372H61.91V5.20049H63.842H65.984C67.664 5.20049 68.882 6.33449 68.882 7.84649C68.882 8.28049 68.742 8.68649 68.518 9.03649ZM65.984 7.00649H63.842V8.65849H66.656C66.838 8.47649 66.95 8.21049 66.95 7.94449C66.95 7.39849 66.586 7.00649 65.984 7.00649ZM66.866 13.1945C67.818 13.1945 68.28 12.5645 68.28 11.7805C68.28 10.9825 67.818 10.3665 66.88 10.3665H63.842V13.1945H66.866ZM74.742 15.1965C72.684 15.1965 71.046 13.5865 71.046 11.5005C71.046 9.41449 72.684 7.80449 74.742 7.80449C76.8 7.80449 78.452 9.41449 78.452 11.5005C78.452 13.5865 76.8 15.1965 74.742 15.1965ZM74.742 13.4325C75.82 13.4325 76.646 12.6345 76.646 11.5005C76.646 10.3665 75.82 9.56849 74.742 9.56849C73.678 9.56849 72.852 10.3665 72.852 11.5005C72.852 12.6345 73.678 13.4325 74.742 13.4325ZM81.2501 10.0305C81.2501 11.2485 85.0161 10.2685 85.0161 12.9705C85.0161 14.4545 83.7281 15.1965 82.1881 15.1965C80.6481 15.1965 79.3601 14.4125 79.3601 12.7745H81.1241C81.1241 13.3205 81.5301 13.6005 82.1881 13.6005C82.8461 13.6005 83.2101 13.3765 83.2101 12.9705C83.2101 11.7665 79.4441 12.7185 79.4441 10.0305C79.4441 8.56049 80.7321 7.80449 82.1881 7.80449C83.5881 7.80449 84.8761 8.58849 84.8761 10.2265H83.1121C83.1121 9.68049 82.7061 9.40049 82.1881 9.40049C81.6141 9.40049 81.2501 9.62449 81.2501 10.0305ZM89.8563 8.00049V9.73649H88.6523V15.0005H86.8463V9.73649H85.6283V8.00049H86.8463V5.76049H88.6523V8.00049H89.8563ZM94.0603 15.1965C92.0023 15.1965 90.3643 13.5865 90.3643 11.5005C90.3643 9.41449 92.0023 7.80449 94.0603 7.80449C96.1183 7.80449 97.7703 9.41449 97.7703 11.5005C97.7703 13.5865 96.1183 15.1965 94.0603 15.1965ZM94.0603 13.4325C95.1383 13.4325 95.9643 12.6345 95.9643 11.5005C95.9643 10.3665 95.1383 9.56849 94.0603 9.56849C92.9963 9.56849 92.1703 10.3665 92.1703 11.5005C92.1703 12.6345 92.9963 13.4325 94.0603 13.4325ZM102.751 7.80449C104.053 7.80449 105.019 8.81249 105.019 10.5205V15.0005H103.213V10.6605C103.213 9.86249 102.737 9.48449 102.107 9.48449C101.393 9.48449 100.847 9.89049 100.847 10.9405V15.0005H99.0408V8.00049H100.847V8.71449C101.239 8.12649 101.883 7.80449 102.751 7.80449ZM67.09 20.2005H69.022V30.0005H67.09V25.8845H63.842V30.0005H61.91V20.2005H63.842V24.0365H67.09V20.2005ZM73.5537 22.8045C75.1077 22.8045 76.4097 23.7285 76.4097 25.5485V30.0005H74.6457V29.3985C74.2397 29.8885 73.6237 30.1965 72.7417 30.1965C71.4957 30.1965 70.3897 29.4545 70.3897 27.9845C70.3897 26.5145 71.4957 25.7865 72.7417 25.7865C73.6237 25.7865 74.2397 26.0525 74.6457 26.4025V25.6605C74.6457 24.8345 74.2257 24.4845 73.5537 24.4845C72.8957 24.4845 72.4757 24.8345 72.4757 25.3805H70.7117C70.7117 23.7285 72.0137 22.8045 73.5537 22.8045ZM73.3577 28.8525C74.1557 28.8525 74.6457 28.4885 74.6457 27.9845C74.6457 27.4525 74.1557 27.1165 73.3577 27.1165C72.5597 27.1165 72.1957 27.4805 72.1957 27.9845C72.1957 28.4885 72.5597 28.8525 73.3577 28.8525ZM79.6828 24.0505C80.0328 23.2245 80.7468 22.8605 81.6008 22.8605V24.8765C80.6628 24.7645 79.6828 25.1845 79.6828 26.5425V30.0005H77.8768V23.0005H79.6828V24.0505ZM86.6676 22.8045C88.5436 22.8045 90.0836 24.4145 90.0836 26.5005C90.0836 28.5865 88.5436 30.1965 86.6676 30.1965C85.6456 30.1965 84.8896 29.8045 84.3996 29.1745V30.0005H82.5936V20.2005H84.3996V23.8265C84.8896 23.1965 85.6456 22.8045 86.6676 22.8045ZM86.3316 28.4745C87.4516 28.4745 88.2776 27.6765 88.2776 26.5005C88.2776 25.3245 87.4516 24.5265 86.3316 24.5265C85.2256 24.5265 84.3996 25.3245 84.3996 26.5005C84.3996 27.6765 85.2256 28.4745 86.3316 28.4745ZM94.6893 30.1965C92.6313 30.1965 90.9932 28.5865 90.9932 26.5005C90.9932 24.4145 92.6313 22.8045 94.6893 22.8045C96.7473 22.8045 98.3993 24.4145 98.3993 26.5005C98.3993 28.5865 96.7473 30.1965 94.6893 30.1965ZM94.6893 28.4325C95.7673 28.4325 96.5933 27.6345 96.5933 26.5005C96.5933 25.3665 95.7673 24.5685 94.6893 24.5685C93.6253 24.5685 92.7993 25.3665 92.7993 26.5005C92.7993 27.6345 93.6253 28.4325 94.6893 28.4325ZM101.476 24.0505C101.826 23.2245 102.54 22.8605 103.394 22.8605V24.8765C102.456 24.7645 101.476 25.1845 101.476 26.5425V30.0005H99.6698V23.0005H101.476V24.0505ZM66.558 45.1965C63.59 45.1965 61.462 42.9565 61.462 40.1005C61.462 37.2305 63.59 35.0045 66.558 35.0045C68.882 35.0045 70.856 36.5305 71.318 38.7005H69.288C68.938 37.5945 67.846 36.8805 66.558 36.8805C64.64 36.8805 63.38 38.2105 63.38 40.1005C63.38 41.9765 64.64 43.3065 66.558 43.3065C67.846 43.3065 68.938 42.6065 69.288 41.5005H71.318C70.856 43.6565 68.896 45.1965 66.558 45.1965ZM75.617 45.1965C73.559 45.1965 71.921 43.5865 71.921 41.5005C71.921 39.4145 73.559 37.8045 75.617 37.8045C77.675 37.8045 79.327 39.4145 79.327 41.5005C79.327 43.5865 77.675 45.1965 75.617 45.1965ZM75.617 43.4325C76.695 43.4325 77.521 42.6345 77.521 41.5005C77.521 40.3665 76.695 39.5685 75.617 39.5685C74.553 39.5685 73.727 40.3665 73.727 41.5005C73.727 42.6345 74.553 43.4325 75.617 43.4325ZM84.3075 37.8045C85.6095 37.8045 86.5755 38.8125 86.5755 40.5205V45.0005H84.7695V40.6605C84.7695 39.8625 84.2935 39.4845 83.6635 39.4845C82.9495 39.4845 82.4035 39.8905 82.4035 40.9405V45.0005H80.5975V38.0005H82.4035V38.7145C82.7955 38.1265 83.4395 37.8045 84.3075 37.8045ZM89.6447 40.0305C89.6447 41.2485 93.4107 40.2685 93.4107 42.9705C93.4107 44.4545 92.1227 45.1965 90.5827 45.1965C89.0427 45.1965 87.7547 44.4125 87.7547 42.7745H89.5187C89.5187 43.3205 89.9247 43.6005 90.5827 43.6005C91.2407 43.6005 91.6047 43.3765 91.6047 42.9705C91.6047 41.7665 87.8387 42.7185 87.8387 40.0305C87.8387 38.5605 89.1267 37.8045 90.5827 37.8045C91.9827 37.8045 93.2707 38.5885 93.2707 40.2265H91.5067C91.5067 39.6805 91.1007 39.4005 90.5827 39.4005C90.0087 39.4005 89.6447 39.6245 89.6447 40.0305ZM98.7109 38.0005H100.517V45.0005H98.7109V44.2725C98.3189 44.8745 97.6749 45.1965 96.8069 45.1965C95.5049 45.1965 94.5249 44.1885 94.5249 42.4665V38.0005H96.3309V42.3405C96.3309 43.1385 96.8069 43.5165 97.4369 43.5165C98.1509 43.5165 98.7109 43.1105 98.7109 42.0465V38.0005ZM102.172 45.0005V34.9205H103.978V45.0005H102.172ZM109.257 38.0005V39.7365H108.053V45.0005H106.247V39.7365H105.029V38.0005H106.247V35.7605H108.053V38.0005H109.257ZM110.306 37.0205V35.2005H112.112V37.0205H110.306ZM110.306 45.0005V38.0005H112.112V45.0005H110.306ZM117.475 37.8045C118.777 37.8045 119.743 38.8125 119.743 40.5205V45.0005H117.937V40.6605C117.937 39.8625 117.461 39.4845 116.831 39.4845C116.117 39.4845 115.571 39.8905 115.571 40.9405V45.0005H113.765V38.0005H115.571V38.7145C115.963 38.1265 116.607 37.8045 117.475 37.8045ZM126.579 38.0005H128.343V44.6645C128.343 46.9605 126.509 47.9965 124.759 47.9965C122.953 47.9965 121.273 47.0165 121.273 45.1965H123.079C123.079 45.8125 123.667 46.3865 124.759 46.3865C125.893 46.3865 126.579 45.7705 126.579 44.6645V43.9225C126.075 44.5805 125.305 44.9725 124.255 44.9725C122.393 44.9725 120.853 43.3765 120.853 41.3885C120.853 39.4145 122.393 37.8045 124.255 37.8045C125.305 37.8045 126.075 38.2105 126.579 38.8685V38.0005ZM124.619 43.3065C125.753 43.3065 126.579 42.5085 126.579 41.3885C126.579 40.2825 125.753 39.4845 124.619 39.4845C123.485 39.4845 122.659 40.2825 122.659 41.3885C122.659 42.5085 123.485 43.3065 124.619 43.3065Z" fill="black"/>
</svg>
