<?xml version="1.0" encoding="UTF-8"?>
<svg version="1.1" xmlns="http://www.w3.org/2000/svg" width="192" height="192">
<path d="M0 0 C63.36 0 126.72 0 192 0 C192 63.36 192 126.72 192 192 C128.64 192 65.28 192 0 192 C0 128.64 0 65.28 0 0 Z " fill="#FDFDFE" transform="translate(0,0)"/>
<path d="M0 0 C5.94 0 11.88 0 18 0 C18 0.66 18 1.32 18 2 C19.4540625 1.9071875 19.4540625 1.9071875 20.9375 1.8125 C29.21504172 1.86246504 36.76900235 5.71175376 43 11 C43 11.66 43 12.32 43 13 C43.66 13 44.32 13 45 13 C55.86421537 36.32773147 61.15245515 68.84637787 53.1171875 93.734375 C52.1894493 95.91127252 51.17098708 97.94533122 50 100 C49.443125 101.010625 48.88625 102.02125 48.3125 103.0625 C44.26673269 108.20171793 39.85462415 113.19870199 33.4375 115 C32.633125 115 31.82875 115 31 115 C31 115.66 31 116.32 31 117 C20.9892364 120.02027904 7.80995836 118.42588534 -2 115 C-4.68359375 112.51171875 -4.68359375 112.51171875 -7 110 C-8.98 109.01 -8.98 109.01 -11 108 C-10.505 114.435 -10.505 114.435 -10 121 C-17.32977175 122.48576454 -24.35897574 123.29698448 -31.8359375 123.55859375 C-35.30345517 124.04233387 -37.23608719 124.87429978 -40 127 C-40.33 127.99 -40.66 128.98 -41 130 C-55.01307154 136.87998094 -70.47750839 134.50542901 -85 131 C-85 130.34 -85 129.68 -85 129 C-86.3921875 128.8453125 -86.3921875 128.8453125 -87.8125 128.6875 C-91.22006102 127.95253586 -91.79821448 127.48897494 -94 125 C-94.7425 124.608125 -95.485 124.21625 -96.25 123.8125 C-102.49050522 119.69943974 -106.3086604 114.14249424 -109.03125 107.27734375 C-110.04149335 104.90245716 -111.27702928 102.82328945 -112.625 100.625 C-119.28593002 88.79613036 -119.23747618 69.39876679 -116.0546875 56.4609375 C-114.97620203 52.85221047 -113.5508614 49.43251595 -112 46 C-111.62746094 45.08347656 -111.25492188 44.16695312 -110.87109375 43.22265625 C-106.4346642 33.19045145 -98.36474347 24.10364015 -88.19140625 19.81640625 C-76.85065039 15.95600761 -62.70128271 15.0077801 -51 18 C-51 18.66 -51 19.32 -51 20 C-50.13117188 20.03738281 -49.26234375 20.07476562 -48.3671875 20.11328125 C-36.92091388 20.76625659 -36.92091388 20.76625659 -32 24 C-32 24.66 -32 25.32 -32 26 C-31.443125 26.2475 -30.88625 26.495 -30.3125 26.75 C-27.60028873 28.21606015 -25.36412635 30.02989471 -23 32 C-22.90203125 31.31035156 -22.8040625 30.62070312 -22.703125 29.91015625 C-21.13162376 20.03408383 -18.63089563 12.60045293 -11.23828125 5.59765625 C-7.74765636 3.10609328 -4.21711796 2.39047389 0 2 C0 1.34 0 0.68 0 0 Z " fill="#0759CA" transform="translate(129,31)"/>
<path d="M0 0 C0.66644531 0.61359375 1.33289063 1.2271875 2.01953125 1.859375 C2.69371094 2.46265625 3.36789063 3.0659375 4.0625 3.6875 C5.83203125 5.609375 5.83203125 5.609375 6.8828125 7.78125 C7.74920845 9.96856191 7.74920845 9.96856191 10.83203125 10.609375 C10.83203125 11.269375 10.83203125 11.929375 10.83203125 12.609375 C12.91566215 12.46785672 14.99893063 12.32099564 17.08203125 12.171875 C18.2421875 12.09066406 19.40234375 12.00945312 20.59765625 11.92578125 C23.15823431 11.67528992 25.36241128 11.24806982 27.83203125 10.609375 C30.16504058 10.57049151 32.49912926 10.5645115 34.83203125 10.609375 C35.33895817 12.1905042 35.83729568 13.77438883 36.33203125 15.359375 C36.61046875 16.24109375 36.88890625 17.1228125 37.17578125 18.03125 C37.83203125 20.609375 37.83203125 20.609375 37.83203125 24.609375 C36.73761719 24.53976563 36.73761719 24.53976563 35.62109375 24.46875 C24.66587306 24.09005101 14.02055542 26.12751709 3.6640625 29.703125 C0.70363604 30.65046147 -1.94870657 31.00796557 -5.04296875 31.234375 C-6.73421875 31.358125 -8.42546875 31.481875 -10.16796875 31.609375 C-9.67296875 40.024375 -9.67296875 40.024375 -9.16796875 48.609375 C-6.98171875 48.774375 -4.79546875 48.939375 -2.54296875 49.109375 C-0.69832031 49.24859375 -0.69832031 49.24859375 1.18359375 49.390625 C4.41240982 49.58421569 7.598818 49.64916839 10.83203125 49.609375 C11.13312461 58.49162899 11.13312461 58.49162899 8.83203125 62.609375 C7.84203125 63.269375 6.85203125 63.929375 5.83203125 64.609375 C5.39890625 65.599375 5.39890625 65.599375 4.95703125 66.609375 C3.42182625 69.33862834 1.71392049 69.55502528 -1.16796875 70.609375 C-2.83507221 72.10923109 -2.83507221 72.10923109 -4.16796875 73.609375 C-7.40151014 75.2261457 -9.5955741 75.08569429 -13.16796875 74.609375 C-15.64165723 72.59916627 -17.55917027 70.36142222 -19.16796875 67.609375 C-19.16796875 66.619375 -19.16796875 65.629375 -19.16796875 64.609375 C-19.82796875 64.609375 -20.48796875 64.609375 -21.16796875 64.609375 C-21.66296875 62.134375 -21.66296875 62.134375 -22.16796875 59.609375 C-22.82796875 59.609375 -23.48796875 59.609375 -24.16796875 59.609375 C-24.82796875 56.309375 -25.48796875 53.009375 -26.16796875 49.609375 C-26.82796875 49.609375 -27.48796875 49.609375 -28.16796875 49.609375 C-28.31492397 45.17223167 -28.40259418 40.7357257 -28.48046875 36.296875 C-28.52236328 35.05357422 -28.56425781 33.81027344 -28.60742188 32.52929688 C-28.75834661 21.028832 -25.79516335 12.60872024 -17.8671875 4.19921875 C-13.20098691 -0.1666287 -6.00227652 -3.8501089 0 0 Z " fill="#F5F7FB" transform="translate(72.16796875,69.390625)"/>
<path d="M0 0 C2.91211393 0.60747323 4.36091406 1.2380497 6.9375 2.9375 C16.25261653 8.38447492 29.43362771 7.48456721 40 8 C40.16323531 12.45632408 40.06265904 15.77453172 38.125 19.8125 C37.77695313 20.56144531 37.42890625 21.31039062 37.0703125 22.08203125 C36 24 36 24 34 26 C32.68 26 31.36 26 30 26 C30 25.01 30 24.02 30 23 C22.84416543 21.7819856 16.1290516 21.49914703 9 23 C6.66796188 23.0777346 4.33160941 23.08967728 2 23 C0.34920558 21.34920558 0.77450553 19.36263821 0.68359375 17.08984375 C0.64169922 16.10048828 0.59980469 15.11113281 0.55664062 14.09179688 C0.51732422 13.05087891 0.47800781 12.00996094 0.4375 10.9375 C0.39431641 9.89271484 0.35113281 8.84792969 0.30664062 7.77148438 C0.20018775 5.18113116 0.0981724 2.59067814 0 0 Z " fill="#ECEFF9" transform="translate(114,101)"/>
<path d="M0 0 C3.75 0.375 3.75 0.375 6.4375 2.375 C13.07327301 10.98357039 13.8352326 18.70902711 12.75 29.375 C11.62185272 33.55578111 9.8250577 36.33251981 6.6875 39.375 C2.10065624 40.93647873 -2.45164233 40.60189257 -7.25 40.375 C-7.745 38.89 -7.745 38.89 -8.25 37.375 C-7.445625 37.00375 -6.64125 36.6325 -5.8125 36.25 C-2.93827104 34.5640663 -2.93827104 34.5640663 -2.4375 31.1875 C-2.375625 30.259375 -2.31375 29.33125 -2.25 28.375 C-1.59 28.375 -0.93 28.375 -0.25 28.375 C-0.53053169 14.56276198 -0.53053169 14.56276198 -4.25 1.375 C-3.25 0.375 -3.25 0.375 0 0 Z " fill="#0B4FA1" transform="translate(151.25,50.625)"/>
<path d="M0 0 C3.61310268 3.93190586 5.13533905 6.91719392 5.09765625 12.23046875 C5.09443359 13.03291016 5.09121094 13.83535156 5.08789062 14.66210938 C5.07951172 15.49548828 5.07113281 16.32886719 5.0625 17.1875 C5.05798828 18.03248047 5.05347656 18.87746094 5.04882812 19.74804688 C5.03705403 21.83206155 5.0191189 23.91603977 5 26 C4.34 26 3.68 26 3 26 C2.896875 26.763125 2.79375 27.52625 2.6875 28.3125 C1.94342109 31.22117209 1.51982932 32.38010972 -1 34 C-3.5625 33.875 -3.5625 33.875 -6 33 C-8 30 -8 30 -8 27 C-8.66 27 -9.32 27 -10 27 C-10.57508762 8.25640334 -10.57508762 8.25640334 -7 2 C-4.3858786 0.03940895 -3.2983059 0 0 0 Z " fill="#E9EDF9" transform="translate(146,53)"/>
<path d="M0 0 C1.8253125 0.0309375 1.8253125 0.0309375 3.6875 0.0625 C4.34256773 8.77854006 2.67249386 14.77157132 -2.3125 21.9375 C-5.84544556 25.69125466 -8.23503998 27.19561658 -13.3125 28.0625 C-14.9917238 28.69687344 -16.66258418 29.35539322 -18.3125 30.0625 C-18.9725 29.0725 -19.6325 28.0825 -20.3125 27.0625 C-19.3125 25.0625 -19.3125 25.0625 -16.875 23.75 C-13.41225848 21.46965803 -12.78845911 19.14185802 -11.8762207 15.15649414 C-11.45116824 13.02523463 -11.06244388 10.89062348 -10.6875 8.75 C-10.5534375 8.00943359 -10.419375 7.26886719 -10.28125 6.50585938 C-9.95363016 4.69224956 -9.63241506 2.87748476 -9.3125 1.0625 C-6.1477023 0.35859578 -3.24113051 -0.05493442 0 0 Z " fill="#074B99" transform="translate(93.3125,115.9375)"/>
<path d="M0 0 C0.99 0 1.98 0 3 0 C3.20335547 7.9421607 3.27680576 15.34740286 1 23 C0.71125 24.0725 0.4225 25.145 0.125 26.25 C-1.20469189 29.50035796 -2.50656584 31.51070776 -5 34 C-8.234375 34.48828125 -8.234375 34.48828125 -11.75 34.3125 C-12.92046875 34.26738281 -14.0909375 34.22226563 -15.296875 34.17578125 C-16.63492188 34.08876953 -16.63492188 34.08876953 -18 34 C-17.61328125 32.05078125 -17.61328125 32.05078125 -17 30 C-16.401875 29.731875 -15.80375 29.46375 -15.1875 29.1875 C-11.75122601 27.32209412 -10.15463757 24.62706802 -9 21 C-9.02169775 18.99838224 -9.10987196 16.99682462 -9.25 15 C-9.48538171 9.63329712 -9.48538171 9.63329712 -7.26953125 6.7421875 C-5.2476541 5.03164365 -3.16110157 3.52602098 -1 2 C-0.67 1.34 -0.34 0.68 0 0 Z " fill="#0B468B" transform="translate(164,97)"/>
<path d="M0 0 C6.625 -0.25 6.625 -0.25 10 2 C10.51953125 5.16015625 10.51953125 5.16015625 10.8125 9.0625 C11.40857636 15.12526206 12.76330157 19.35248474 16.5625 24.16796875 C18 26 18 26 19.0625 28.17578125 C19.8645994 30.17859351 19.8645994 30.17859351 22 31 C19.6568787 30.74438677 17.32156597 30.40729228 15 30 C14.67 29.34 14.34 28.68 14 28 C11.96945295 27.16414981 9.90783132 26.53369729 7.8125 25.87890625 C7.214375 25.58886719 6.61625 25.29882812 6 25 C5.67 24.01 5.34 23.02 5 22 C4.34 22 3.68 22 3 22 C0.12059087 15.5849443 -1.5464821 10.02952752 -2 3 C-1.34 3 -0.68 3 0 3 C0 2.01 0 1.02 0 0 Z " fill="#0A4A98" transform="translate(109,75)"/>
<path d="M0 0 C0 0.33 0 0.66 0 1 C-1.8871875 1.1546875 -1.8871875 1.1546875 -3.8125 1.3125 C-12.12203483 2.25172529 -19.75051768 4.59881172 -27.22265625 8.328125 C-27.80917969 8.54984375 -28.39570312 8.7715625 -29 9 C-29.66 8.67 -30.32 8.34 -31 8 C-26.8310781 4.35219334 -21.55196264 2 -16 2 C-16 1.34 -16 0.68 -16 0 C-18.08343851 0.47870914 -20.16674689 0.95798469 -22.25 1.4375 C-23.41015625 1.70433594 -24.5703125 1.97117188 -25.765625 2.24609375 C-38.66210582 5.25215752 -48.57122348 11.70825968 -56 23 C-56.7166207 25.31847874 -57.38242027 27.65319703 -58 30 C-58.515625 31.010625 -59.03125 32.02125 -59.5625 33.0625 C-61.04792829 36.09794042 -61.6025825 38.66169297 -62 42 C-62.66 42 -63.32 42 -64 42 C-63.91844944 46.47987423 -63.80566299 50.95845373 -63.6875 55.4375 C-63.66494141 56.69755859 -63.64238281 57.95761719 -63.61914062 59.25585938 C-63.37742319 67.67202098 -62.08099394 74.21371394 -58.75 81.875 C-58 84 -58 84 -59 87 C-59.81325353 85.74287146 -60.59907287 84.46800402 -61.375 83.1875 C-61.81585938 82.47980469 -62.25671875 81.77210938 -62.7109375 81.04296875 C-68.92759119 66.36789837 -68.26632963 45.75337096 -62.41015625 31.12109375 C-61.94480469 30.09113281 -61.47945312 29.06117187 -61 28 C-60.62746094 27.08347656 -60.25492188 26.16695312 -59.87109375 25.22265625 C-55.4346642 15.19045145 -47.36474347 6.10364015 -37.19140625 1.81640625 C-25.85065039 -2.04399239 -11.70128271 -2.9922199 0 0 Z " fill="#75AFFB" transform="translate(78,49)"/>
<path d="M0 0 C6.93 0.495 6.93 0.495 14 1 C13.67 2.65 13.34 4.3 13 6 C13.38230257 8.05627002 13.38230257 8.05627002 14.21484375 9.98828125 C14.48876953 10.69404297 14.76269531 11.39980469 15.04492188 12.12695312 C15.33947266 12.84818359 15.63402344 13.56941406 15.9375 14.3125 C16.37352539 15.42334961 16.37352539 15.42334961 16.81835938 16.55664062 C17.53421047 18.37560651 18.26558735 20.1884488 19 22 C12.61474586 21.3704679 7.74462618 20.22273366 3.33984375 15.3515625 C0.62602966 10.58854186 0.49935343 5.38192029 0 0 Z " fill="#0B4EA8" transform="translate(115,123)"/>
<path d="M0 0 C4.6875 0.78125 4.6875 0.78125 9.375 1.5625 C10.674375 1.7790625 10.674375 1.7790625 12 2 C13.32972073 6.98645274 13.06829634 11.87777466 13 17 C9.04 17 5.08 17 1 17 C-0.53266582 13.93466836 -0.10276471 10.73245728 -0.0625 7.375 C-0.05798828 6.66859375 -0.05347656 5.9621875 -0.04882812 5.234375 C-0.03703875 3.48954725 -0.01910324 1.744763 0 0 Z " fill="#024FA5" transform="translate(62,101)"/>
<path d="M0 0 C4.02914772 3.2965754 6.85861753 7.65382492 9.125 12.3125 C9.88818611 14.1891646 9.88818611 14.1891646 12 15 C9.6568787 14.74438677 7.32156597 14.40729228 5 14 C4.67 13.34 4.34 12.68 4 12 C2.20830338 11.31677774 2.20830338 11.31677774 0.125 10.75 C-3.29175593 9.54984917 -3.8773303 9.18400456 -6 6 C-7 3 -7 3 -7 0 C-4.23382717 -1.38308641 -2.92591209 -0.90563946 0 0 Z " fill="#193D6D" transform="translate(119,91)"/>
<path d="M0 0 C3.96 0.33 7.92 0.66 12 1 C12.33 2.32 12.66 3.64 13 5 C13.99 5.33 14.98 5.66 16 6 C18.6875 8.4375 18.6875 8.4375 21 11 C21 11.66 21 12.32 21 13 C11.93023256 13.30232558 11.93023256 13.30232558 9 11 C7.63636792 9.02053408 6.30581356 7.0180755 5 5 C3.3707726 3.29671681 1.71358643 1.61838719 0 0 Z " fill="#1452A1" transform="translate(70,68)"/>
<path d="M0 0 C3.25481979 0.59364638 6.10979895 1.36307197 9 3 C11.22214301 6.52339792 12.35966055 10.1543735 11.5546875 14.28515625 C11.37164062 14.85105469 11.18859375 15.41695312 11 16 C7.57158332 15.14289583 5.34325404 14.30614549 2.6875 11.9375 C0.43701891 8.01999588 0.19413681 4.4554398 0 0 Z " fill="#1A3964" transform="translate(117,125)"/>
<path d="M0 0 C1.07530878 3.46459244 1.07249791 6.58551614 0.9921875 10.19921875 C0.97542969 11.40900391 0.95867188 12.61878906 0.94140625 13.86523438 C0.89747206 16.39403492 0.84551393 18.92271002 0.78515625 21.45117188 C0.70216935 28.56918441 1.10034063 34.45701469 4 41 C6.0754717 45.77358491 6.0754717 45.77358491 5 49 C4.18674647 47.74287146 3.40092713 46.46800402 2.625 45.1875 C2.18414063 44.47980469 1.74328125 43.77210938 1.2890625 43.04296875 C-2.26228041 34.65964716 -2.31737712 25.59738683 -2.25 16.625 C-2.25773438 15.57183594 -2.26546875 14.51867187 -2.2734375 13.43359375 C-2.27085938 12.41652344 -2.26828125 11.39945313 -2.265625 10.3515625 C-2.26336914 9.44229004 -2.26111328 8.53301758 -2.25878906 7.59619141 C-1.97594568 4.75868525 -1.17426492 2.58583163 0 0 Z " fill="#88A4F3" transform="translate(14,87)"/>
<path d="M0 0 C3.39581516 -0.0291544 6.79159786 -0.04685068 10.1875 -0.0625 C11.14720703 -0.07087891 12.10691406 -0.07925781 13.09570312 -0.08789062 C14.02705078 -0.09111328 14.95839844 -0.09433594 15.91796875 -0.09765625 C17.19837036 -0.10551147 17.19837036 -0.10551147 18.50463867 -0.11352539 C21.09246747 0.00420677 23.47661953 0.42892956 26 1 C26 1.33 26 1.66 26 2 C24.741875 2.103125 23.48375 2.20625 22.1875 2.3125 C13.87796517 3.25172529 6.24948232 5.59881172 -1.22265625 9.328125 C-1.80917969 9.54984375 -2.39570312 9.7715625 -3 10 C-3.66 9.67 -4.32 9.34 -5 9 C-0.8310781 5.35219334 4.44803736 3 10 3 C10 2.34 10 1.68 10 1 C8.96875 1.33 7.9375 1.66 6.875 2 C3.51573291 2.9715192 0.50893798 3.17116771 -3 3 C-2.01 2.67 -1.02 2.34 0 2 C0 1.34 0 0.68 0 0 Z " fill="#348AF1" transform="translate(52,48)"/>
<path d="M0 0 C5.94 0 11.88 0 18 0 C18 0.33 18 0.66 18 1 C16.96359375 1.04898438 15.9271875 1.09796875 14.859375 1.1484375 C13.48955792 1.22349597 12.11976752 1.29904247 10.75 1.375 C10.06808594 1.4059375 9.38617188 1.436875 8.68359375 1.46875 C4.98051365 1.6844634 2.17822257 2.05775287 -1 4 C-1.9075 4.37125 -2.815 4.7425 -3.75 5.125 C-7.54440531 7.31407998 -10.10827598 9.96615302 -13.0703125 13.16015625 C-14.96523011 14.96684895 -16.60886705 15.97446965 -19 17 C-17.02524938 11.31390902 -13.78738336 7.60471336 -9 4 C-6.01758386 2.87064613 -3.16988473 2.29350784 0 2 C0 1.34 0 0.68 0 0 Z " fill="#67A7FB" transform="translate(129,31)"/>
<path d="M0 0 C0.66 0 1.32 0 2 0 C2.33 0.66 2.66 1.32 3 2 C4.61841584 2.73071333 6.27064574 3.3877838 7.9375 4 C12.78587699 5.78587699 12.78587699 5.78587699 15 8 C17.31765729 8.71927295 19.65095874 9.3909893 22 10 C17.1397381 11.61277314 13.56231257 9.89841194 9 8 C6.58240905 6.76473455 4.31365888 5.42757675 2 4 C2.165 5.134375 2.33 6.26875 2.5 7.4375 C3.07576084 11.97060294 3.09505266 16.43747238 3 21 C2.67 21 2.34 21 2 21 C-0.62096065 14.11997829 -0.18170362 7.27823961 0 0 Z " fill="#4972CA" transform="translate(112,97)"/>
<path d="M0 0 C0 0.66 0 1.32 0 2 C-15.06820014 7.77958362 -28.62969607 6.71007336 -44 3 C-44 2.67 -44 2.34 -44 2 C-42.86304688 2.0721875 -41.72609375 2.144375 -40.5546875 2.21875 C-21.97910457 3.91281313 -21.97910457 3.91281313 -3.890625 0.65625 C-2 0 -2 0 0 0 Z " fill="#768ED1" transform="translate(88,159)"/>
<path d="M0 0 C0.65506773 8.71604006 -1.01500614 14.70907132 -6 21.875 C-7.87711487 23.86943455 -9.73715831 25.46450029 -12 27 C-12.66 26.67 -13.32 26.34 -14 26 C-13 23 -13 23 -10.25 21.5 C-4.99459272 18.22011931 -2.8244422 11.52812765 -1.46875 5.7265625 C-1.14065104 3.6694222 -1.14065104 3.6694222 -1 1 C-4.63 1.33 -8.26 1.66 -12 2 C-12 3.98 -12 5.96 -12 8 C-12.33 8 -12.66 8 -13 8 C-13 5.69 -13 3.38 -13 1 C-8.59085217 -0.10228696 -4.51617599 -0.07654536 0 0 Z " fill="#0751AE" transform="translate(97,116)"/>
<path d="M0 0 C0.99 0.33 1.98 0.66 3 1 C3.12375 1.61875 3.2475 2.2375 3.375 2.875 C4.28987992 5.98559172 6.22809764 6.39845641 9 8 C10.02523684 8.97410955 11.02423968 9.97633414 12 11 C14.44408992 13.55145304 16.92197576 15.241129 20 17 C20.33 17.66 20.66 18.32 21 19 C12.75005336 16.93751334 5.65956063 11.06189466 1 4 C0.33984375 1.7890625 0.33984375 1.7890625 0 0 Z " fill="#6D89C1" transform="translate(22,141)"/>
<path d="M0 0 C0.66 0.33 1.32 0.66 2 1 C1.16855469 1.85271484 1.16855469 1.85271484 0.3203125 2.72265625 C-4.02331903 7.35225641 -6.6825917 10.65248726 -8 17 C-8.515625 18.010625 -9.03125 19.02125 -9.5625 20.0625 C-11.04792829 23.09794042 -11.6025825 25.66169297 -12 29 C-12.33 29 -12.66 29 -13 29 C-13.32924344 22.85412245 -12.52600273 18.58322492 -10 13 C-9.70996094 12.30519531 -9.41992188 11.61039063 -9.12109375 10.89453125 C-6.89289013 5.92535748 -4.40086013 3.20062555 0 0 Z " fill="#438CFD" transform="translate(28,62)"/>
<path d="M0 0 C0 2.31 0 4.62 0 7 C-1.65 7.66 -3.3 8.32 -5 9 C-5.268125 8.195625 -5.53625 7.39125 -5.8125 6.5625 C-6.204375 5.716875 -6.59625 4.87125 -7 4 C-7.99 3.67 -8.98 3.34 -10 3 C-8.0130571 -0.97388579 -3.91761109 -0.08705802 0 0 Z " fill="#13407A" transform="translate(96,117)"/>
<path d="M0 0 C14.78132118 -0.18451025 14.78132118 -0.18451025 21 1 C21 1.33 21 1.66 21 2 C17.04 2 13.08 2 9 2 C9 2.66 9 3.32 9 4 C3.58461538 7.07692308 3.58461538 7.07692308 0.625 6.6875 C0.08875 6.460625 -0.4475 6.23375 -1 6 C0.65 5.34 2.3 4.68 4 4 C4 3.34 4 2.68 4 2 C2.35 2 0.7 2 -1 2 C-0.67 1.34 -0.34 0.68 0 0 Z " fill="#237DEA" transform="translate(133,32)"/>
<path d="M0 0 C1 2 1 2 0.25 4.4375 C-2.26955534 9.60258845 -5.58903236 11.10141486 -11 13 C-13.4375 12.6875 -13.4375 12.6875 -15 12 C-14.360625 11.896875 -13.72125 11.79375 -13.0625 11.6875 C-12.0415625 11.3471875 -12.0415625 11.3471875 -11 11 C-10.67 10.01 -10.34 9.02 -10 8 C-9.21625 7.71125 -8.4325 7.4225 -7.625 7.125 C-4.32384416 5.71021892 -3.667135 4.09610786 -2 1 C-1.34 0.67 -0.68 0.34 0 0 Z " fill="#387EEE" transform="translate(81,131)"/>
<path d="M0 0 C0.33 0 0.66 0 1 0 C1.2475 0.9075 1.495 1.815 1.75 2.75 C3.06481337 6.16851477 4.15685117 7.74220534 7 10 C9.03243548 10.96877057 9.03243548 10.96877057 11 11 C11.66 10.34 12.32 9.68 13 9 C14.32 11.31 15.64 13.62 17 16 C10.32051349 15.34145908 5.77202131 14.04196638 1.20703125 8.953125 C-0.64954768 5.94895198 -0.48746094 3.41222656 0 0 Z " fill="#1A498A" transform="translate(117,129)"/>
<path d="M0 0 C-6.82893728 3.67712007 -13.36619666 4.48383536 -21 5 C-21 7.97 -21 10.94 -21 14 C-21.33 14 -21.66 14 -22 14 C-22 10.37 -22 6.74 -22 3 C-14.73054552 1.01742151 -7.56592083 -0.24406196 0 0 Z " fill="#8EA6EB" transform="translate(83,96)"/>
<path d="M0 0 C-0.825 0.495 -1.65 0.99 -2.5 1.5 C-6.25736057 3.96912266 -9.19582579 7.13045064 -12.265625 10.390625 C-14 12 -14 12 -16 12 C-16.33 12.99 -16.66 13.98 -17 15 C-16.10014198 8.20370392 -11.59261294 3.9896797 -6.3125 -0.0625 C-3.69375154 -1.12415478 -2.58491092 -1.05311186 0 0 Z " fill="#C1CBEA" transform="translate(65,70)"/>
<path d="M0 0 C0.57446809 20.53191489 0.57446809 20.53191489 -3 30 C-3.33 30 -3.66 30 -4 30 C-3.85923685 28.0412957 -3.7122324 26.08303907 -3.5625 24.125 C-3.48128906 23.03445312 -3.40007812 21.94390625 -3.31640625 20.8203125 C-3 18 -3 18 -2 16 C-1.76970044 13.62876754 -1.58880058 11.25258057 -1.4375 8.875 C-1.35371094 7.59367187 -1.26992187 6.31234375 -1.18359375 4.9921875 C-1.09271484 3.51105469 -1.09271484 3.51105469 -1 2 C-1.99 2 -2.98 2 -4 2 C-4.33 2.66 -4.66 3.32 -5 4 C-5 3.01 -5 2.02 -5 1 C-3 0 -3 0 0 0 Z " fill="#044FAD" transform="translate(168,95)"/>
<path d="M0 0 C0.66 0 1.32 0 2 0 C3.14077657 3.42232972 3.09815117 6.08673217 3.0625 9.6875 C3.05347656 10.86699219 3.04445313 12.04648438 3.03515625 13.26171875 C3.02355469 14.16535156 3.01195313 15.06898437 3 16 C3.66 16.33 4.32 16.66 5 17 C3.68 17 2.36 17 1 17 C-0.53266582 13.93466836 -0.10276471 10.73245728 -0.0625 7.375 C-0.05798828 6.66859375 -0.05347656 5.9621875 -0.04882812 5.234375 C-0.03703875 3.48954725 -0.01910324 1.744763 0 0 Z " fill="#1B5ED0" transform="translate(62,101)"/>
<path d="M0 0 C0.33 0.99 0.66 1.98 1 3 C0.34 3.66 -0.32 4.32 -1 5 C0.32 5.33 1.64 5.66 3 6 C0.69 7.65 -1.62 9.3 -4 11 C-5.32 10.34 -6.64 9.68 -8 9 C-6.73786958 5.21360875 -5.34654649 4.95895404 -2 3 C-1.34 2.01 -0.68 1.02 0 0 Z " fill="#0351B0" transform="translate(81,135)"/>
<path d="M0 0 C0 0.33 0 0.66 0 1 C-5.07476794 2.26305335 -9.72796354 3.27036084 -15 3 C-15 3.66 -15 4.32 -15 5 C-17.9375 4.625 -17.9375 4.625 -21 4 C-21.33 3.34 -21.66 2.68 -22 2 C-14.58856436 0.57374434 -7.55137932 -0.30071865 0 0 Z " fill="#0852BC" transform="translate(87,98)"/>
<path d="M0 0 C3.96565356 3.96565356 4.87780647 9.87532891 5.19140625 15.328125 C5.18797409 18.22486845 5.13423137 21.10656832 5 24 C2.90526536 20.47663881 2.45407601 17.16210666 1.9375 13.125 C1.36368243 8.73363581 0.75409148 4.36438783 0 0 Z " fill="#B9C5E6" transform="translate(179,56)"/>
<path d="M0 0 C4.875 4.625 4.875 4.625 6 8 C6.66 8.33 7.32 8.66 8 9 C5.6568787 8.74438677 3.32156597 8.40729228 1 8 C0.67 7.34 0.34 6.68 0 6 C-1.64363134 5.27840576 -3.31050386 4.60648579 -5 4 C-5 3.67 -5 3.34 -5 3 C-3.35 3 -1.7 3 0 3 C0 2.01 0 1.02 0 0 Z " fill="#0F4281" transform="translate(123,97)"/>
<path d="M0 0 C3 1 3 1 5 4 C6.65 3.67 8.3 3.34 10 3 C10.33 4.65 10.66 6.3 11 8 C10.01 8.33 9.02 8.66 8 9 C4.48031108 7.13240996 2.42568235 5.8513647 0.625 2.25 C0.41875 1.5075 0.2125 0.765 0 0 Z " fill="#163D6F" transform="translate(118,132)"/>
<path d="M0 0 C0 1.32 0 2.64 0 4 C-2.97 4 -5.94 4 -9 4 C-7 0 -7 0 -5.0625 -0.8125 C-3 -1 -3 -1 0 0 Z " fill="#12417B" transform="translate(154,86)"/>
<path d="M0 0 C2.31 0 4.62 0 7 0 C7.33 0.99 7.66 1.98 8 3 C6.02 3.99 4.04 4.98 2 6 C1.01 5.01 0.02 4.02 -1 3 C-0.67 2.01 -0.34 1.02 0 0 Z " fill="#11488D" transform="translate(148,51)"/>
<path d="M0 0 C1.46067199 0.45082469 2.91848032 0.91093537 4.375 1.375 C5.18710938 1.63023438 5.99921875 1.88546875 6.8359375 2.1484375 C9 3 9 3 11 5 C13.31765729 5.71927295 15.65095874 6.3909893 18 7 C13.18275244 8.59482572 9.45909035 7.10259598 5 5 C3.01721626 3.46037299 1.62431681 1.93870071 0 0 Z " fill="#4E6AA2" transform="translate(116,100)"/>
<path d="M0 0 C0.33 0.99 0.66 1.98 1 3 C-1 5 -1 5 -3.3828125 5.1953125 C-4.28773438 5.17210937 -5.19265625 5.14890625 -6.125 5.125 C-7.49011719 5.09792969 -7.49011719 5.09792969 -8.8828125 5.0703125 C-9.58148438 5.04710937 -10.28015625 5.02390625 -11 5 C-10 3 -10 3 -7.71484375 2.1484375 C-6.34005859 1.76558594 -6.34005859 1.76558594 -4.9375 1.375 C-4.01839844 1.11460938 -3.09929687 0.85421875 -2.15234375 0.5859375 C-1.44207031 0.39257812 -0.73179687 0.19921875 0 0 Z " fill="#153E73" transform="translate(159,124)"/>
<path d="M0 0 C0.66 0.33 1.32 0.66 2 1 C3.87056791 1.2275015 5.74685958 1.40962811 7.625 1.5625 C8.62789062 1.64628906 9.63078125 1.73007813 10.6640625 1.81640625 C11.43492187 1.87699219 12.20578125 1.93757812 13 2 C12.67 2.66 12.34 3.32 12 4 C7.71 4 3.42 4 -1 4 C-0.67 2.68 -0.34 1.36 0 0 Z " fill="#084DA4" transform="translate(147,127)"/>
<path d="M0 0 C1.66611905 -0.042721 3.33382885 -0.04063832 5 0 C6 1 6 1 6.0625 3.5625 C6.041875 4.366875 6.02125 5.17125 6 6 C3.03 5.505 3.03 5.505 0 5 C0 3.35 0 1.7 0 0 Z " fill="#153F73" transform="translate(111,76)"/>
<path d="M0 0 C0.66 0 1.32 0 2 0 C2 2.31 2 4.62 2 7 C-0.31 7 -2.62 7 -5 7 C-4.21654285 5.82780457 -3.42297164 4.66236332 -2.625 3.5 C-2.18414062 2.8503125 -1.74328125 2.200625 -1.2890625 1.53125 C-0.65097656 0.77328125 -0.65097656 0.77328125 0 0 Z " fill="#203D6C" transform="translate(100,147)"/>
<path d="M0 0 C0.33 0 0.66 0 1 0 C1 2.64 1 5.28 1 8 C0.01 8.33 -0.98 8.66 -2 9 C-2.66 8.67 -3.32 8.34 -4 8 C-3.4021799 4.65220745 -2.20964398 2.57791798 0 0 Z " fill="#1E3251" transform="translate(165,98)"/>
<path d="M0 0 C0 0.66 0 1.32 0 2 C-5.02125926 2.77916092 -8.97703996 3.13016601 -14 2 C-14 1.67 -14 1.34 -14 1 C-9.32798795 -0.20568053 -4.78503708 -0.09382426 0 0 Z " fill="#2157B9" transform="translate(137,122)"/>
<path d="M0 0 C0 3.10551666 -0.5393715 4.35261084 -2 7 C-0.35 7 1.3 7 3 7 C2.67 7.99 2.34 8.98 2 10 C-0.31 9.34 -2.62 8.68 -5 8 C-4.45773019 4.20411134 -2.79872437 2.52788007 0 0 Z " fill="#153F7A" transform="translate(163,99)"/>
<path d="M0 0 C2.64 0.33 5.28 0.66 8 1 C8 1.99 8 2.98 8 4 C7.21625 3.835 6.4325 3.67 5.625 3.5 C3.11791961 2.9376293 3.11791961 2.9376293 1 3 C1.66 4.98 2.32 6.96 3 9 C2.34 9 1.68 9 1 9 C-0.4783226 6.04335481 -0.06032783 3.25770263 0 0 Z " fill="#11478B" transform="translate(111,88)"/>
<path d="M0 0 C0.99 0.33 1.98 0.66 3 1 C4.1875 4.5625 4.1875 4.5625 5 8 C4.01 8 3.02 8 2 8 C-0.1519437 4.77208445 -0.20086443 3.71599191 0 0 Z " fill="#1F3454" transform="translate(122,128)"/>
<path d="M0 0 C0.99 0.66 1.98 1.32 3 2 C2.67 2.66 2.34 3.32 2 4 C1.236875 3.62875 0.47375 3.2575 -0.3125 2.875 C-1.199375 2.58625 -2.08625 2.2975 -3 2 C-3.99 2.66 -4.98 3.32 -6 4 C-6.33 2.68 -6.66 1.36 -7 0 C-4.28569464 -1.35715268 -2.88661718 -0.77445827 0 0 Z " fill="#124079" transform="translate(119,91)"/>
<path d="M0 0 C1.98 0.99 1.98 0.99 4 2 C3.01 2.495 3.01 2.495 2 3 C2 5.64 2 8.28 2 11 C1.34 10.67 0.68 10.34 0 10 C0 6.7 0 3.4 0 0 Z " fill="#3666C5" transform="translate(116,136)"/>
<path d="M0 0 C6.52307692 -0.36923077 6.52307692 -0.36923077 8.9375 1.5 C9.288125 1.995 9.63875 2.49 10 3 C8.72125 3.061875 7.4425 3.12375 6.125 3.1875 C5.40570313 3.22230469 4.68640625 3.25710937 3.9453125 3.29296875 C3.30335937 3.19628906 2.66140625 3.09960938 2 3 C1.34 2.01 0.68 1.02 0 0 Z " fill="#2058AD" transform="translate(42,158)"/>
<path d="M0 0 C2.52588702 2.36292656 3.88820837 3.66462511 5 7 C2.36 6.34 -0.28 5.68 -3 5 C-2.34 4.67 -1.68 4.34 -1 4 C-0.34786708 1.97536745 -0.34786708 1.97536745 0 0 Z " fill="#0E4284" transform="translate(129,138)"/>
<path d="M0 0 C0.93045933 2.55144824 1.08564091 3.74006478 0.22265625 6.359375 C-0.16019531 7.14828125 -0.54304687 7.9371875 -0.9375 8.75 C-1.50791016 9.94882813 -1.50791016 9.94882813 -2.08984375 11.171875 C-2.39019531 11.77515625 -2.69054687 12.3784375 -3 13 C-3.66 13 -4.32 13 -5 13 C-4.731875 12.34 -4.46375 11.68 -4.1875 11 C-2.74294953 7.35060933 -1.37128822 3.67754567 0 0 Z " fill="#A7B5E1" transform="translate(182,122)"/>
<path d="M0 0 C0.66 0.66 1.32 1.32 2 2 C1.34 2.66 0.68 3.32 0 4 C-0.59834554 5.52056618 -1.13506656 7.06612088 -1.625 8.625 C-1.88539062 9.44226562 -2.14578125 10.25953125 -2.4140625 11.1015625 C-2.60742188 11.72804688 -2.80078125 12.35453125 -3 13 C-4.10096216 9.73381227 -3.9223497 7.98446051 -2.625 4.8125 C-2.34914063 4.11769531 -2.07328125 3.42289063 -1.7890625 2.70703125 C-1 1 -1 1 0 0 Z " fill="#3981FD" transform="translate(111,47)"/>
<path d="M0 0 C-1.11375 0.433125 -1.11375 0.433125 -2.25 0.875 C-4.94322476 1.91204676 -4.94322476 1.91204676 -7.125 3.1875 C-9 4 -9 4 -12 3 C-8.62803192 -0.37196808 -4.5120049 -1.50400163 0 0 Z " fill="#5CA5FB" transform="translate(45,53)"/>
<path d="M0 0 C1.12588014 0.95729916 2.2506715 1.91587895 3.375 2.875 C4.00148438 3.40867188 4.62796875 3.94234375 5.2734375 4.4921875 C6.55836651 5.61432007 7.79371975 6.79371975 9 8 C5.12793601 7.42636089 2.81534937 5.65894107 0 3 C0 2.01 0 1.02 0 0 Z " fill="#0051B4" transform="translate(39,150)"/>
<path d="M0 0 C2.7972908 2.06756277 3.02692273 3.14440371 3.6875 6.6875 C3.790625 7.780625 3.89375 8.87375 4 10 C2 9 2 9 0.875 6.6875 C0 4 0 4 0 0 Z " fill="#4E78D6" transform="translate(16,126)"/>
<path d="M0 0 C1.98 0 3.96 0 6 0 C6.33 0.99 6.66 1.98 7 3 C6.01 3.33 5.02 3.66 4 4 C4 3.34 4 2.68 4 2 C2.35 2 0.7 2 -1 2 C-0.67 1.34 -0.34 0.68 0 0 Z " fill="#268DFB" transform="translate(133,32)"/>
</svg>
